<svg xmlns="http://www.w3.org/2000/svg" viewBox="0 0 40.88 40.88"><defs><style>.cls-1{fill:#d2aa00;}</style></defs><g id="Layer_2" data-name="Layer 2"><g id="design"><circle class="cls-1" cx="20.44" cy="8.71" r="1.01"/><circle class="cls-1" cx="14.58" cy="10.28" r="1"/><circle class="cls-1" cx="10.28" cy="14.58" r="1"/><path class="cls-1" d="M9.42,21.15a1,1,0,0,0,0-1.42,1,1,0,1,0,0,1.42Z"/><circle class="cls-1" cx="10.28" cy="26.3" r="1"/><circle class="cls-1" cx="14.58" cy="30.6" r="1"/><circle class="cls-1" cx="20.44" cy="32.17" r="1.01"/><circle class="cls-1" cx="26.3" cy="30.6" r="1"/><circle class="cls-1" cx="30.6" cy="26.3" r="1"/><path class="cls-1" d="M31.46,19.73a1,1,0,0,0,0,1.42,1,1,0,1,0,0-1.42Z"/><circle class="cls-1" cx="30.6" cy="14.58" r="1"/><circle class="cls-1" cx="26.3" cy="10.28" r="1"/><circle class="cls-1" cx="20.44" cy="0.34" r="0.34"/><path class="cls-1" d="M10.3,3.35a.34.34,0,0,0,.41-.23.34.34,0,1,0-.41.23Z"/><path class="cls-1" d="M3.12,10.71a.34.34,0,0,0,.23-.41.34.34,0,0,0-.41-.24.34.34,0,1,0,.18.65Z"/><path class="cls-1" d="M.57,20.68a.34.34,0,0,0,0-.48.33.33,0,0,0-.47,0,.34.34,0,0,0,0,.48A.33.33,0,0,0,.57,20.68Z"/><path class="cls-1" d="M3.35,30.58a.34.34,0,0,0-.23-.41.35.35,0,0,0-.42.23.34.34,0,0,0,.24.41A.33.33,0,0,0,3.35,30.58Z"/><path class="cls-1" d="M10.71,37.76a.33.33,0,0,0-.41-.23.34.34,0,0,0-.24.41.34.34,0,0,0,.65-.18Z"/><circle class="cls-1" cx="20.44" cy="40.54" r="0.34"/><path class="cls-1" d="M30.58,37.53a.33.33,0,0,0-.18.64.33.33,0,0,0,.18-.64Z"/><path class="cls-1" d="M37.76,30.17a.33.33,0,0,0-.23.41.33.33,0,0,0,.64-.18A.33.33,0,0,0,37.76,30.17Z"/><path class="cls-1" d="M40.31,20.2a.34.34,0,0,0,0,.48.33.33,0,0,0,.47,0,.34.34,0,0,0,0-.48A.33.33,0,0,0,40.31,20.2Z"/><path class="cls-1" d="M37.53,10.3a.33.33,0,1,0,.64.17.33.33,0,0,0-.23-.41A.34.34,0,0,0,37.53,10.3Z"/><path class="cls-1" d="M30.17,3.12a.34.34,0,0,0,.41.23.33.33,0,0,0,.23-.41.34.34,0,0,0-.41-.24A.35.35,0,0,0,30.17,3.12Z"/><circle class="cls-1" cx="15.24" cy="1.02" r="0.34"/><path class="cls-1" d="M6.22,6.56a.34.34,0,1,0,0-.67.34.34,0,0,0,0,.67Z"/><path class="cls-1" d="M1.19,15.53a.34.34,0,0,0,.12-.46.33.33,0,0,0-.58.33A.34.34,0,0,0,1.19,15.53Z"/><path class="cls-1" d="M1.31,25.81a.34.34,0,1,0-.46.12A.33.33,0,0,0,1.31,25.81Z"/><path class="cls-1" d="M6.56,34.65a.34.34,0,1,0-.34.34A.34.34,0,0,0,6.56,34.65Z"/><path class="cls-1" d="M15.53,39.69a.34.34,0,0,0-.46-.12.33.33,0,0,0,.33.58A.34.34,0,0,0,15.53,39.69Z"/><circle class="cls-1" cx="25.64" cy="39.86" r="0.34"/><path class="cls-1" d="M34.65,34.32a.34.34,0,0,0,0,.67.34.34,0,1,0,0-.67Z"/><path class="cls-1" d="M39.69,25.35a.34.34,0,0,0-.12.46.33.33,0,0,0,.46.12.34.34,0,0,0-.34-.58Z"/><path class="cls-1" d="M39.57,15.07a.33.33,0,1,0,.58.33.33.33,0,0,0-.58-.33Z"/><path class="cls-1" d="M34.32,6.22a.34.34,0,1,0,.33-.33A.34.34,0,0,0,34.32,6.22Z"/><path class="cls-1" d="M25.35,1.19a.34.34,0,0,0,.46.12.33.33,0,0,0,.12-.46.34.34,0,1,0-.58.34Z"/><circle class="cls-1" cx="17.82" cy="0.51" r="0.34"/><path class="cls-1" d="M8.16,4.82a.33.33,0,1,0-.29-.37A.32.32,0,0,0,8.16,4.82Z"/><path class="cls-1" d="M2,13.06a.33.33,0,0,0,.18-.44.33.33,0,0,0-.61.25A.33.33,0,0,0,2,13.06Z"/><path class="cls-1" d="M.77,23.27a.33.33,0,0,0-.06-.47.33.33,0,0,0-.47.06.34.34,0,0,0,.06.47A.34.34,0,0,0,.77,23.27Z"/><path class="cls-1" d="M4.82,32.72a.33.33,0,0,0-.66-.09.33.33,0,0,0,.29.38A.34.34,0,0,0,4.82,32.72Z"/><path class="cls-1" d="M13.06,38.88a.34.34,0,0,0-.44-.18.34.34,0,0,0-.18.44.33.33,0,0,0,.43.18A.34.34,0,0,0,13.06,38.88Z"/><circle class="cls-1" cx="23.06" cy="40.37" r="0.34"/><path class="cls-1" d="M32.72,36.06a.33.33,0,0,0-.09.66.33.33,0,0,0,.38-.29A.34.34,0,0,0,32.72,36.06Z"/><path class="cls-1" d="M38.88,27.82a.34.34,0,0,0,.26.62.34.34,0,1,0-.26-.62Z"/><path class="cls-1" d="M40.11,17.61a.33.33,0,0,0,.06.47.34.34,0,0,0,.47-.06.34.34,0,0,0-.06-.47A.33.33,0,0,0,40.11,17.61Z"/><path class="cls-1" d="M36.06,8.16a.33.33,0,1,0,.37-.29A.32.32,0,0,0,36.06,8.16Z"/><path class="cls-1" d="M27.82,2a.33.33,0,0,0,.62-.25A.33.33,0,0,0,28,1.56.33.33,0,0,0,27.82,2Z"/><circle class="cls-1" cx="12.75" cy="1.87" r="0.34"/><path class="cls-1" d="M4.53,8.53a.33.33,0,1,0-.37-.29A.32.32,0,0,0,4.53,8.53Z"/><path class="cls-1" d="M.71,18.08a.33.33,0,0,0,.06-.47.33.33,0,0,0-.47-.06A.34.34,0,0,0,.24,18,.33.33,0,0,0,.71,18.08Z"/><path class="cls-1" d="M2.17,28.26A.33.33,0,1,0,1.56,28a.33.33,0,0,0,.18.44A.33.33,0,0,0,2.17,28.26Z"/><path class="cls-1" d="M8.53,36.35a.33.33,0,1,0-.29.37A.32.32,0,0,0,8.53,36.35Z"/><path class="cls-1" d="M18.08,40.17a.33.33,0,0,0-.47-.06.33.33,0,0,0-.06.47.34.34,0,0,0,.47.06A.34.34,0,0,0,18.08,40.17Z"/><circle class="cls-1" cx="28.13" cy="39.01" r="0.34"/><path class="cls-1" d="M36.35,32.35a.32.32,0,0,0-.29.37.34.34,0,0,0,.37.29.33.33,0,0,0,.29-.38A.32.32,0,0,0,36.35,32.35Z"/><path class="cls-1" d="M40.17,22.8a.33.33,0,0,0-.06.47.34.34,0,0,0,.53-.41A.33.33,0,0,0,40.17,22.8Z"/><path class="cls-1" d="M38.7,12.62a.33.33,0,1,0,.62.25.33.33,0,0,0-.18-.43A.34.34,0,0,0,38.7,12.62Z"/><path class="cls-1" d="M32.35,4.53a.32.32,0,0,0,.37.29A.34.34,0,0,0,33,4.45a.33.33,0,0,0-.38-.29A.32.32,0,0,0,32.35,4.53Z"/><path class="cls-1" d="M22.8.71a.33.33,0,0,0,.47.06A.34.34,0,0,0,23.33.3a.34.34,0,0,0-.47-.06A.33.33,0,0,0,22.8.71Z"/><path class="cls-1" d="M20.44,29.82a9.38,9.38,0,1,1,9.38-9.38A9.39,9.39,0,0,1,20.44,29.82Zm0-16.75a7.37,7.37,0,1,0,7.37,7.37A7.37,7.37,0,0,0,20.44,13.07Z"/></g></g></svg>