<svg xmlns="http://www.w3.org/2000/svg" viewBox="0 0 40.88 40.88"><defs><style>.cls-1{fill:#d2aa00;}</style></defs><g id="Layer_2" data-name="Layer 2"><g id="design"><circle class="cls-1" cx="27.98" cy="33.5" r="1.01" transform="translate(-12.57 49.65) rotate(-71.85)"/><circle class="cls-1" cx="12.9" cy="33.5" r="1.01" transform="translate(-6.6 3.36) rotate(-11.85)"/><circle class="cls-1" cx="35.52" cy="20.44" r="1.01" transform="translate(-4.58 28.91) rotate(-41.85)"/><circle class="cls-1" cx="5.36" cy="20.44" r="1.01" transform="translate(-12.27 8.79) rotate(-41.85)"/><circle class="cls-1" cx="20.44" cy="5.36" r="1.01" transform="translate(1.64 15) rotate(-41.85)"/><circle class="cls-1" cx="31.1" cy="31.1" r="1.01" transform="translate(-1.66 60.45) rotate(-86.85)"/><circle class="cls-1" cx="9.78" cy="31.1" r="1.01" transform="translate(-21.81 39.16) rotate(-86.85)"/><circle class="cls-1" cx="35" cy="24.34" r="1.01" transform="translate(-7.22 18.44) rotate(-26.85)"/><circle class="cls-1" cx="5.87" cy="16.54" r="1.01" transform="translate(-6.84 4.44) rotate(-26.85)"/><circle class="cls-1" cx="16.54" cy="35" r="1.01" transform="translate(-14.03 11.24) rotate(-26.85)"/><circle class="cls-1" cx="35" cy="16.54" r="1.01" transform="translate(2.02 36.8) rotate(-56.85)"/><circle class="cls-1" cx="5.87" cy="24.34" r="1.01" transform="translate(-17.72 15.95) rotate(-56.85)"/><circle class="cls-1" cx="24.34" cy="35" r="1.01" transform="matrix(0.55, -0.84, 0.84, 0.55, -18.28, 36.24)"/><circle class="cls-1" cx="12.35" cy="18.27" r="1.01"/><circle class="cls-1" cx="12.35" cy="22.61" r="1.01"/><circle class="cls-1" cx="14.52" cy="26.36" r="1.01"/><circle class="cls-1" cx="18.27" cy="28.53" r="1.01"/><circle class="cls-1" cx="22.61" cy="28.53" r="1.01"/><path class="cls-1" d="M26.36,25.36a1,1,0,1,0,1,1A1,1,0,0,0,26.36,25.36Z"/><circle class="cls-1" cx="28.53" cy="22.61" r="1.01"/><circle class="cls-1" cx="28.53" cy="18.27" r="1.01"/><circle class="cls-1" cx="20.44" cy="0.34" r="0.34"/><path class="cls-1" d="M10.3,3.35a.34.34,0,0,0,.41-.23.34.34,0,1,0-.41.23Z"/><path class="cls-1" d="M3.12,10.71a.34.34,0,0,0,.23-.41.34.34,0,0,0-.41-.24.34.34,0,1,0,.18.65Z"/><path class="cls-1" d="M.57,20.68a.34.34,0,0,0,0-.48.33.33,0,0,0-.47,0,.34.34,0,0,0,0,.48A.33.33,0,0,0,.57,20.68Z"/><path class="cls-1" d="M3.35,30.58a.34.34,0,0,0-.23-.41.35.35,0,0,0-.42.23.34.34,0,0,0,.24.41A.33.33,0,0,0,3.35,30.58Z"/><path class="cls-1" d="M10.71,37.76a.33.33,0,0,0-.41-.23.34.34,0,0,0-.24.41.34.34,0,0,0,.65-.18Z"/><circle class="cls-1" cx="20.44" cy="40.54" r="0.34"/><path class="cls-1" d="M30.58,37.53a.33.33,0,0,0-.18.64.33.33,0,0,0,.18-.64Z"/><path class="cls-1" d="M37.76,30.17a.33.33,0,0,0-.23.41.33.33,0,0,0,.64-.18A.33.33,0,0,0,37.76,30.17Z"/><path class="cls-1" d="M40.31,20.2a.34.34,0,0,0,0,.48.33.33,0,0,0,.47,0,.34.34,0,0,0,0-.48A.33.33,0,0,0,40.31,20.2Z"/><path class="cls-1" d="M37.53,10.3a.33.33,0,1,0,.64.17.33.33,0,0,0-.23-.41A.34.34,0,0,0,37.53,10.3Z"/><path class="cls-1" d="M30.17,3.12a.34.34,0,0,0,.41.23.33.33,0,0,0,.23-.41.34.34,0,0,0-.41-.24A.35.35,0,0,0,30.17,3.12Z"/><circle class="cls-1" cx="15.24" cy="1.02" r="0.34"/><path class="cls-1" d="M6.22,6.56a.34.34,0,1,0,0-.67.34.34,0,0,0,0,.67Z"/><path class="cls-1" d="M1.19,15.53a.34.34,0,0,0,.12-.46.33.33,0,0,0-.58.33A.34.34,0,0,0,1.19,15.53Z"/><path class="cls-1" d="M1.31,25.81a.34.34,0,1,0-.46.12A.33.33,0,0,0,1.31,25.81Z"/><path class="cls-1" d="M6.56,34.65a.34.34,0,1,0-.34.34A.34.34,0,0,0,6.56,34.65Z"/><path class="cls-1" d="M15.53,39.69a.34.34,0,0,0-.46-.12.33.33,0,0,0,.33.58A.34.34,0,0,0,15.53,39.69Z"/><circle class="cls-1" cx="25.64" cy="39.86" r="0.34"/><path class="cls-1" d="M34.65,34.32a.34.34,0,0,0,0,.67.34.34,0,1,0,0-.67Z"/><path class="cls-1" d="M39.69,25.35a.34.34,0,0,0-.12.46.33.33,0,0,0,.46.12.34.34,0,0,0-.34-.58Z"/><path class="cls-1" d="M39.57,15.07a.33.33,0,1,0,.58.33.33.33,0,0,0-.58-.33Z"/><path class="cls-1" d="M34.32,6.22a.34.34,0,1,0,.33-.33A.34.34,0,0,0,34.32,6.22Z"/><path class="cls-1" d="M25.35,1.19a.34.34,0,0,0,.46.12.33.33,0,0,0,.12-.46.34.34,0,1,0-.58.34Z"/><circle class="cls-1" cx="17.82" cy="0.51" r="0.34"/><path class="cls-1" d="M8.16,4.82a.33.33,0,1,0-.29-.37A.32.32,0,0,0,8.16,4.82Z"/><path class="cls-1" d="M2,13.06a.33.33,0,0,0,.18-.44.33.33,0,0,0-.61.25A.33.33,0,0,0,2,13.06Z"/><path class="cls-1" d="M.77,23.27a.33.33,0,0,0-.06-.47.33.33,0,0,0-.47.06.34.34,0,0,0,.06.47A.34.34,0,0,0,.77,23.27Z"/><path class="cls-1" d="M4.82,32.72a.33.33,0,0,0-.66-.09.33.33,0,0,0,.29.38A.34.34,0,0,0,4.82,32.72Z"/><path class="cls-1" d="M13.06,38.88a.34.34,0,0,0-.44-.18.34.34,0,0,0-.18.44.33.33,0,0,0,.43.18A.34.34,0,0,0,13.06,38.88Z"/><circle class="cls-1" cx="23.06" cy="40.37" r="0.34"/><path class="cls-1" d="M32.72,36.06a.33.33,0,0,0-.09.66.33.33,0,0,0,.38-.29A.34.34,0,0,0,32.72,36.06Z"/><path class="cls-1" d="M38.88,27.82a.34.34,0,0,0,.26.62.34.34,0,1,0-.26-.62Z"/><path class="cls-1" d="M40.11,17.61a.33.33,0,0,0,.06.47.34.34,0,0,0,.47-.06.34.34,0,0,0-.06-.47A.33.33,0,0,0,40.11,17.61Z"/><path class="cls-1" d="M36.06,8.16a.33.33,0,1,0,.37-.29A.32.32,0,0,0,36.06,8.16Z"/><path class="cls-1" d="M27.82,2a.33.33,0,0,0,.62-.25A.33.33,0,0,0,28,1.56.33.33,0,0,0,27.82,2Z"/><circle class="cls-1" cx="12.75" cy="1.87" r="0.34"/><path class="cls-1" d="M4.53,8.53a.33.33,0,1,0-.37-.29A.32.32,0,0,0,4.53,8.53Z"/><path class="cls-1" d="M.71,18.08a.33.33,0,0,0,.06-.47.33.33,0,0,0-.47-.06A.34.34,0,0,0,.24,18,.33.33,0,0,0,.71,18.08Z"/><path class="cls-1" d="M2.17,28.26A.33.33,0,1,0,1.56,28a.33.33,0,0,0,.18.44A.33.33,0,0,0,2.17,28.26Z"/><path class="cls-1" d="M8.53,36.35a.33.33,0,1,0-.29.37A.32.32,0,0,0,8.53,36.35Z"/><path class="cls-1" d="M18.08,40.17a.33.33,0,0,0-.47-.06.33.33,0,0,0-.06.47.34.34,0,0,0,.47.06A.34.34,0,0,0,18.08,40.17Z"/><circle class="cls-1" cx="28.13" cy="39.01" r="0.34"/><path class="cls-1" d="M36.35,32.35a.32.32,0,0,0-.29.37.34.34,0,0,0,.37.29.33.33,0,0,0,.29-.38A.32.32,0,0,0,36.35,32.35Z"/><path class="cls-1" d="M40.17,22.8a.33.33,0,0,0-.06.47.34.34,0,0,0,.53-.41A.33.33,0,0,0,40.17,22.8Z"/><path class="cls-1" d="M38.7,12.62a.33.33,0,1,0,.62.25.33.33,0,0,0-.18-.43A.34.34,0,0,0,38.7,12.62Z"/><path class="cls-1" d="M32.35,4.53a.32.32,0,0,0,.37.29A.34.34,0,0,0,33,4.45a.33.33,0,0,0-.38-.29A.32.32,0,0,0,32.35,4.53Z"/><path class="cls-1" d="M22.8.71a.33.33,0,0,0,.47.06A.34.34,0,0,0,23.33.3a.34.34,0,0,0-.47-.06A.33.33,0,0,0,22.8.71Z"/><path class="cls-1" d="M9.11,24.48a1,1,0,0,1-1-.75,12.7,12.7,0,0,1,0-6.59,1,1,0,1,1,1.94.53,10.84,10.84,0,0,0,0,5.54,1,1,0,0,1-.71,1.24A1.15,1.15,0,0,1,9.11,24.48Z"/><path class="cls-1" d="M17.4,32.77l-.26,0a12.78,12.78,0,0,1-5.7-3.3,1,1,0,0,1,0-1.42,1,1,0,0,1,1.42,0,10.65,10.65,0,0,0,4.81,2.77,1,1,0,0,1-.27,2Z"/><path class="cls-1" d="M31.77,24.48a.84.84,0,0,1-.27,0,1,1,0,0,1-.71-1.23,10.77,10.77,0,0,0,0-5.55,1,1,0,0,1,.71-1.23,1,1,0,0,1,1.23.71,12.73,12.73,0,0,1,0,6.6A1,1,0,0,1,31.77,24.48Z"/><path class="cls-1" d="M23.47,32.77a1,1,0,0,1-.26-2A10.76,10.76,0,0,0,28,28a1,1,0,0,1,1.42,1.42,12.7,12.7,0,0,1-5.71,3.3A1.09,1.09,0,0,1,23.47,32.77Z"/><path class="cls-1" d="M17.4,10.12a1,1,0,0,1-.26-2,12.7,12.7,0,0,1,6.59,0,1,1,0,1,1-.52,1.94,10.84,10.84,0,0,0-5.54,0A.84.84,0,0,1,17.4,10.12Z"/><path class="cls-1" d="M15.26,22.83a1,1,0,0,1-1-.74,6.37,6.37,0,0,1,0-3.3,1,1,0,1,1,1.94.52,4.33,4.33,0,0,0,0,2.26,1,1,0,0,1-.71,1.23A1.15,1.15,0,0,1,15.26,22.83Z"/><path class="cls-1" d="M19.05,26.62l-.26,0a6.36,6.36,0,0,1-2.85-1.65,1,1,0,1,1,1.42-1.42,4.42,4.42,0,0,0,1.95,1.13,1,1,0,0,1-.26,2Z"/><path class="cls-1" d="M25.62,22.83a1.09,1.09,0,0,1-.26,0,1,1,0,0,1-.71-1.23,4.55,4.55,0,0,0,0-2.26,1,1,0,0,1,.71-1.23,1,1,0,0,1,1.23.71,6.37,6.37,0,0,1,0,3.3A1,1,0,0,1,25.62,22.83Z"/><path class="cls-1" d="M21.83,26.62a1,1,0,0,1-.26-2,4.42,4.42,0,0,0,1.95-1.13,1,1,0,0,1,1.42,1.42,6.36,6.36,0,0,1-2.85,1.65Z"/></g></g></svg>