<svg xmlns="http://www.w3.org/2000/svg" viewBox="0 0 7.6 7.6"><defs><style>.cls-1{fill:#bb9300;}</style></defs><g id="Layer_2" data-name="Layer 2"><g id="design"><path class="cls-1" d="M6.74,6.43a.3.3,0,0,1-.3.3H1.15a.31.31,0,0,1-.31-.3V3.22h.7a2.27,2.27,0,0,0-.09.65A2.32,2.32,0,0,0,3.81,6.16,2.33,2.33,0,0,0,6.17,3.87a2,2,0,0,0-.1-.65h.67ZM3.81,2.31A1.51,1.51,0,0,1,5.34,3.79a1.53,1.53,0,0,1-3.06,0A1.51,1.51,0,0,1,3.81,2.31M5.2,1.19A.35.35,0,0,1,5.54.84H6.4a.35.35,0,0,1,.34.35V2a.34.34,0,0,1-.34.34H5.54A.34.34,0,0,1,5.2,2ZM0,7.6H7.6V0H0Z"/></g></g></svg>