<svg xmlns="http://www.w3.org/2000/svg" viewBox="0 0 7.52 7.52"><defs><style>.cls-1{fill:#bb9300;}</style></defs><g id="Layer_2" data-name="Layer 2"><g id="design"><path class="cls-1" d="M5.75,2.74v.13A2.9,2.9,0,0,1,2.83,5.79a3,3,0,0,1-1.58-.46l.25,0a2.08,2.08,0,0,0,1.27-.44,1,1,0,0,1-1-.72l.2,0a.84.84,0,0,0,.27,0,1,1,0,0,1-.83-1h0a1.06,1.06,0,0,0,.47.12A1,1,0,0,1,1.6,1.91,2.93,2.93,0,0,0,3.72,3a.85.85,0,0,1,0-.23,1,1,0,0,1,1.78-.7,2.2,2.2,0,0,0,.65-.25,1,1,0,0,1-.45.57,1.92,1.92,0,0,0,.59-.17,2,2,0,0,1-.51.54M0,7.52H7.52V0H0Z"/></g></g></svg>