<svg xmlns="http://www.w3.org/2000/svg" viewBox="0 0 40.85 40.85"><defs><style>.cls-1{fill:#d2aa00;}</style></defs><g id="Layer_2" data-name="Layer 2"><g id="design"><circle class="cls-1" cx="20.43" cy="0.33" r="0.33"/><path class="cls-1" d="M10.29,3.35a.34.34,0,0,0,.18-.65.34.34,0,0,0-.18.65Z"/><path class="cls-1" d="M3.11,10.7a.33.33,0,0,0,.24-.41.34.34,0,0,0-.65.18A.33.33,0,0,0,3.11,10.7Z"/><path class="cls-1" d="M.57,20.66a.33.33,0,1,0-.47,0A.33.33,0,0,0,.57,20.66Z"/><path class="cls-1" d="M3.35,30.56a.34.34,0,1,0-.65-.17.35.35,0,0,0,.24.41A.34.34,0,0,0,3.35,30.56Z"/><path class="cls-1" d="M10.7,37.74a.33.33,0,0,0-.41-.24.34.34,0,0,0-.23.41.33.33,0,1,0,.64-.17Z"/><circle class="cls-1" cx="20.43" cy="40.52" r="0.33"/><path class="cls-1" d="M30.56,37.5a.34.34,0,0,0-.17.65.34.34,0,0,0,.41-.24A.34.34,0,0,0,30.56,37.5Z"/><path class="cls-1" d="M37.74,30.15a.33.33,0,0,0-.24.41.34.34,0,0,0,.41.24.34.34,0,0,0,.24-.41A.33.33,0,0,0,37.74,30.15Z"/><path class="cls-1" d="M40.28,20.19a.33.33,0,1,0,.47,0A.33.33,0,0,0,40.28,20.19Z"/><path class="cls-1" d="M37.5,10.29a.34.34,0,1,0,.41-.23A.34.34,0,0,0,37.5,10.29Z"/><path class="cls-1" d="M30.15,3.11a.33.33,0,0,0,.41.24.34.34,0,0,0,.24-.41.35.35,0,0,0-.41-.24A.33.33,0,0,0,30.15,3.11Z"/><circle class="cls-1" cx="15.23" cy="1.02" r="0.33"/><path class="cls-1" d="M6.22,6.55a.34.34,0,0,0,0-.67.34.34,0,1,0,0,.67Z"/><path class="cls-1" d="M1.19,15.52a.34.34,0,0,0,.12-.46.33.33,0,0,0-.58.33A.34.34,0,0,0,1.19,15.52Z"/><path class="cls-1" d="M1.31,25.79a.33.33,0,0,0-.58-.33.34.34,0,0,0,.12.46A.34.34,0,0,0,1.31,25.79Z"/><path class="cls-1" d="M6.55,34.63a.34.34,0,0,0-.67,0,.34.34,0,1,0,.67,0Z"/><path class="cls-1" d="M15.52,39.67a.34.34,0,0,0-.46-.13.33.33,0,0,0-.12.46.32.32,0,0,0,.45.12A.33.33,0,0,0,15.52,39.67Z"/><circle class="cls-1" cx="25.63" cy="39.83" r="0.33"/><path class="cls-1" d="M34.63,34.3a.34.34,0,0,0,0,.67.34.34,0,1,0,0-.67Z"/><path class="cls-1" d="M39.67,25.34a.33.33,0,0,0-.13.45.34.34,0,0,0,.46.13.33.33,0,0,0,.12-.46A.32.32,0,0,0,39.67,25.34Z"/><path class="cls-1" d="M39.54,15.06a.34.34,0,0,0,.13.46.33.33,0,0,0,.45-.13.32.32,0,0,0-.12-.45A.33.33,0,0,0,39.54,15.06Z"/><path class="cls-1" d="M34.3,6.22a.34.34,0,0,0,.67,0,.34.34,0,1,0-.67,0Z"/><path class="cls-1" d="M25.34,1.19a.33.33,0,0,0,.45.12.34.34,0,0,0,.13-.46.34.34,0,0,0-.46-.12A.33.33,0,0,0,25.34,1.19Z"/><circle class="cls-1" cx="17.8" cy="0.51" r="0.33"/><path class="cls-1" d="M8.15,4.82a.34.34,0,1,0-.29-.38A.35.35,0,0,0,8.15,4.82Z"/><path class="cls-1" d="M2,13.05a.34.34,0,0,0,.18-.44.33.33,0,0,0-.43-.18.33.33,0,1,0,.25.62Z"/><path class="cls-1" d="M.77,23.25a.34.34,0,0,0-.06-.47.34.34,0,0,0-.47.06.34.34,0,0,0,.06.47A.33.33,0,0,0,.77,23.25Z"/><path class="cls-1" d="M4.82,32.7a.34.34,0,0,0-.67-.09.34.34,0,0,0,.67.09Z"/><path class="cls-1" d="M13.05,38.86a.34.34,0,0,0-.62.26.33.33,0,0,0,.44.18A.34.34,0,0,0,13.05,38.86Z"/><circle class="cls-1" cx="23.05" cy="40.35" r="0.33"/><path class="cls-1" d="M32.7,36a.35.35,0,0,0-.38.29.34.34,0,0,0,.67.09A.35.35,0,0,0,32.7,36Z"/><path class="cls-1" d="M38.86,27.81a.33.33,0,0,0-.18.43.34.34,0,0,0,.44.18.33.33,0,1,0-.26-.61Z"/><path class="cls-1" d="M40.08,17.6a.33.33,0,0,0,.06.47.34.34,0,0,0,.47-.06.34.34,0,0,0-.53-.41Z"/><path class="cls-1" d="M36,8.15a.35.35,0,0,0,.29.38.35.35,0,0,0,.38-.29A.34.34,0,0,0,36,8.15Z"/><path class="cls-1" d="M27.81,2a.33.33,0,1,0,.61-.25.33.33,0,1,0-.61.25Z"/><circle class="cls-1" cx="12.74" cy="1.86" r="0.33"/><path class="cls-1" d="M4.53,8.53a.35.35,0,0,0,.29-.38.35.35,0,0,0-.38-.29.34.34,0,1,0,.09.67Z"/><path class="cls-1" d="M.71,18.07a.34.34,0,0,0-.41-.53A.34.34,0,0,0,.24,18,.34.34,0,0,0,.71,18.07Z"/><path class="cls-1" d="M2.17,28.24A.33.33,0,0,0,2,27.81a.33.33,0,1,0-.25.61A.33.33,0,0,0,2.17,28.24Z"/><path class="cls-1" d="M8.53,36.32a.34.34,0,1,0-.29.38A.35.35,0,0,0,8.53,36.32Z"/><path class="cls-1" d="M18.07,40.14a.34.34,0,1,0-.06.47A.34.34,0,0,0,18.07,40.14Z"/><circle class="cls-1" cx="28.11" cy="38.99" r="0.33"/><path class="cls-1" d="M36.32,32.32a.34.34,0,0,0,.09.67.34.34,0,0,0-.09-.67Z"/><path class="cls-1" d="M40.14,22.78a.34.34,0,0,0-.06.47.33.33,0,0,0,.47.06.33.33,0,0,0,.06-.47A.34.34,0,0,0,40.14,22.78Z"/><path class="cls-1" d="M38.68,12.61a.34.34,0,1,0,.62.26.33.33,0,0,0-.18-.44A.34.34,0,0,0,38.68,12.61Z"/><path class="cls-1" d="M32.32,4.53a.35.35,0,0,0,.38.29.34.34,0,1,0-.09-.67A.35.35,0,0,0,32.32,4.53Z"/><path class="cls-1" d="M22.78.71a.34.34,0,0,0,.47.06A.33.33,0,0,0,23.31.3a.34.34,0,0,0-.47-.06A.34.34,0,0,0,22.78.71Z"/><circle class="cls-1" cx="27.96" cy="33.48" r="1" transform="translate(-12.56 49.62) rotate(-71.85)"/><circle class="cls-1" cx="7.38" cy="27.96" r="1" transform="translate(-21.49 26.26) rotate(-71.85)"/><circle class="cls-1" cx="33.48" cy="12.89" r="1" transform="translate(10.8 40.69) rotate(-71.85)"/><circle class="cls-1" cx="33.48" cy="27.96" r="1" transform="translate(-5.03 7.47) rotate(-11.85)"/><circle class="cls-1" cx="24.33" cy="34.98" r="1" transform="translate(-18.26 36.22) rotate(-56.85)"/><circle class="cls-1" cx="5.87" cy="24.33" r="1" transform="translate(-17.71 15.94) rotate(-56.85)"/><circle class="cls-1" cx="34.98" cy="16.53" r="1" transform="translate(2.02 36.78) rotate(-56.85)"/><circle class="cls-1" cx="16.53" cy="5.87" r="1" transform="translate(2.57 16.5) rotate(-56.85)"/><circle class="cls-1" cx="31.08" cy="31.08" r="1" transform="translate(-1.66 60.41) rotate(-86.85)"/><circle class="cls-1" cx="9.77" cy="31.08" r="1" transform="translate(-21.8 39.13) rotate(-86.85)"/><circle class="cls-1" cx="34.98" cy="24.33" r="1" transform="translate(-7.22 18.42) rotate(-26.85)"/><circle class="cls-1" cx="5.87" cy="16.53" r="1" transform="translate(-6.83 4.43) rotate(-26.85)"/><circle class="cls-1" cx="16.53" cy="34.98" r="1" transform="translate(-14.02 11.24) rotate(-26.85)"/><circle class="cls-1" cx="24.33" cy="5.87" r="1" transform="translate(-0.03 11.62) rotate(-26.85)"/><circle class="cls-1" cx="7.38" cy="12.89" r="1" transform="translate(-2.49 1.79) rotate(-11.85)"/><circle class="cls-1" cx="12.89" cy="33.48" r="1" transform="translate(-6.6 3.36) rotate(-11.85)"/><circle class="cls-1" cx="35.49" cy="20.43" r="1" transform="translate(-4.57 28.89) rotate(-41.85)"/><circle class="cls-1" cx="5.36" cy="20.43" r="1" transform="translate(-12.26 8.79) rotate(-41.85)"/><circle class="cls-1" cx="20.43" cy="35.49" r="1" transform="translate(-18.47 22.68) rotate(-41.85)"/><circle class="cls-1" cx="20.43" cy="5.36" r="1" transform="translate(1.64 15) rotate(-41.85)"/><path class="cls-1" d="M17.39,10.11a1,1,0,0,1-.26-2,12.7,12.7,0,0,1,6.59,0,1,1,0,1,1-.52,1.94,10.66,10.66,0,0,0-5.55,0A1.09,1.09,0,0,1,17.39,10.11Z"/><path class="cls-1" d="M20.43,33.15a12.72,12.72,0,0,1-9-21.72,1,1,0,0,1,1.42,1.42,10.72,10.72,0,1,0,15.15,0,1,1,0,0,1,1.42-1.42,12.72,12.72,0,0,1-9,21.72Z"/></g></g></svg>