<svg xmlns="http://www.w3.org/2000/svg" xmlns:xlink="http://www.w3.org/1999/xlink" viewBox="0 0 482.05 454.23"><defs><style>.cls-1{fill:none;}.cls-2{fill:#e8e4c5;}.cls-3{clip-path:url(#clip-path);}.cls-4{fill:#f2efd5;}</style><clipPath id="clip-path" transform="translate(226.93)"><rect id="SVGID" class="cls-1" y="0.37" width="226.93" height="453.86"/></clipPath></defs><g id="Layer_2" data-name="Layer 2"><g id="design"><rect class="cls-2" x="226.93" width="255.12" height="453.11"/><g class="cls-3"><circle class="cls-4" cy="227.3" r="29.18" transform="translate(38.42 100.3) rotate(-56.03)"/><circle class="cls-4" cx="226.93" cy="175.43" r="6.48"/><path class="cls-4" d="M-27.61,188.64a6.48,6.48,0,0,0,7.94-4.58,6.49,6.49,0,0,0-4.59-7.94,6.48,6.48,0,0,0-7.94,4.58A6.49,6.49,0,0,0-27.61,188.64Z" transform="translate(226.93)"/><path class="cls-4" d="M-43.24,207.63a6.48,6.48,0,0,0,4.58-7.94,6.49,6.49,0,0,0-7.94-4.59A6.48,6.48,0,0,0-51.18,203,6.48,6.48,0,0,0-43.24,207.63Z" transform="translate(226.93)"/><path class="cls-4" d="M-47.29,231.89a6.47,6.47,0,0,0,0-9.17,6.49,6.49,0,0,0-9.17,0,6.49,6.49,0,0,0,0,9.17A6.49,6.49,0,0,0-47.29,231.89Z" transform="translate(226.93)"/><path class="cls-4" d="M-38.66,254.92A6.49,6.49,0,0,0-43.24,247a6.49,6.49,0,0,0-7.94,4.59,6.48,6.48,0,0,0,4.58,7.94A6.49,6.49,0,0,0-38.66,254.92Z" transform="translate(226.93)"/><path class="cls-4" d="M-19.67,270.55A6.48,6.48,0,0,0-27.61,266a6.49,6.49,0,0,0-4.59,7.94,6.49,6.49,0,0,0,7.94,4.59A6.5,6.5,0,0,0-19.67,270.55Z" transform="translate(226.93)"/><circle class="cls-4" cx="226.93" cy="279.17" r="6.48"/><path class="cls-4" d="M27.61,266a6.49,6.49,0,1,0,4.59,7.94A6.48,6.48,0,0,0,27.61,266Z" transform="translate(226.93)"/><path class="cls-4" d="M43.24,247a6.49,6.49,0,1,0,7.94,4.59A6.49,6.49,0,0,0,43.24,247Z" transform="translate(226.93)"/><path class="cls-4" d="M47.29,222.72a6.48,6.48,0,1,0,9.17,0A6.47,6.47,0,0,0,47.29,222.72Z" transform="translate(226.93)"/><path class="cls-4" d="M38.66,199.69a6.48,6.48,0,1,0,7.94-4.59A6.48,6.48,0,0,0,38.66,199.69Z" transform="translate(226.93)"/><path class="cls-4" d="M19.67,184.06a6.49,6.49,0,1,0,4.59-7.94A6.48,6.48,0,0,0,19.67,184.06Z" transform="translate(226.93)"/><circle class="cls-4" cx="226.93" cy="113.84" r="12.97"/><circle class="cls-4" cx="-56.73" cy="129.04" r="12.97" transform="translate(154.81 -11.08) rotate(-30)"/><circle class="cls-4" cx="-98.26" cy="170.57" r="12.97" transform="translate(178.92 -19.76) rotate(-15.15)"/><path class="cls-4" d="M-104.3,236.47a13,13,0,0,0,0-18.34,13,13,0,0,0-18.34,0,13,13,0,0,0,0,18.34A13,13,0,0,0-104.3,236.47Z" transform="translate(226.93)"/><circle class="cls-4" cx="-98.26" cy="284.03" r="12.97" transform="translate(49.56 -5.92) rotate(-34.34)"/><circle class="cls-4" cx="-56.73" cy="325.57" r="12.97" transform="translate(41.94 21) rotate(-32.72)"/><circle class="cls-4" cx="226.93" cy="340.77" r="12.97"/><circle class="cls-4" cx="56.73" cy="325.57" r="12.97" transform="translate(71.75 71.98) rotate(-30)"/><circle class="cls-4" cx="98.26" cy="284.03" r="12.97" transform="matrix(0.97, -0.26, 0.26, 0.97, 156.1, 35.57)"/><path class="cls-4" d="M104.3,218.13a13,13,0,1,0,18.34,0A13,13,0,0,0,104.3,218.13Z" transform="translate(226.93)"/><circle class="cls-4" cx="98.26" cy="170.57" r="12.97" transform="translate(147.83 85.17) rotate(-34.34)"/><circle class="cls-4" cx="56.73" cy="129.04" r="12.97" transform="translate(166.18 51.14) rotate(-32.72)"/><circle class="cls-4" cx="-20.98" cy="149.02" r="9.73" transform="translate(187.65 -0.35) rotate(-15)"/><path class="cls-4" d="M-57.31,179.72A9.73,9.73,0,0,0-47.58,170a9.73,9.73,0,0,0-9.73-9.72A9.72,9.72,0,0,0-67,170,9.73,9.73,0,0,0-57.31,179.72Z" transform="translate(226.93)"/><circle class="cls-4" cx="-78.29" cy="206.33" r="9.73" transform="translate(77.39 -2.53) rotate(-39.62)"/><circle class="cls-4" cx="-78.29" cy="248.28" r="9.73" transform="translate(219.02 -2.36) rotate(-1.82)"/><circle class="cls-4" cx="-57.31" cy="284.61" r="9.73" transform="translate(49.7 20.21) rotate(-35.78)"/><circle class="cls-4" cx="-20.98" cy="305.59" r="9.73" transform="translate(82.54 25.24) rotate(-27.69)"/><circle class="cls-4" cx="20.98" cy="305.59" r="9.73" transform="translate(148.55 15.84) rotate(-15)"/><path class="cls-4" d="M57.31,274.89A9.73,9.73,0,1,0,67,284.61,9.73,9.73,0,0,0,57.31,274.89Z" transform="translate(226.93)"/><circle class="cls-4" cx="78.29" cy="248.28" r="9.73" transform="translate(86.6 106.94) rotate(-39.62)"/><circle class="cls-4" cx="78.29" cy="206.33" r="9.73" transform="translate(220.43 2.58) rotate(-1.82)"/><circle class="cls-4" cx="57.31" cy="169.99" r="9.73" transform="translate(138.35 65.6) rotate(-35.78)"/><circle class="cls-4" cx="20.98" cy="149.02" r="9.73" transform="translate(160.09 26.81) rotate(-27.69)"/><circle class="cls-4" cx="-41.95" cy="70.73" r="6.48" transform="translate(135.18 5.28) rotate(-67.94)"/><circle class="cls-4" cx="112.31" cy="112.68" r="6.48"/><circle class="cls-4" cx="-156.57" cy="185.35" r="6.48" transform="translate(69.63 -57.28) rotate(-40.36)"/><circle class="cls-4" cx="-156.57" cy="269.25" r="6.48" transform="translate(-99.14 7.95) rotate(-63.15)"/><circle class="cls-4" cx="-114.62" cy="341.92" r="6.48" transform="translate(-159.72 105.18) rotate(-67.5)"/><circle class="cls-4" cx="-41.95" cy="383.87" r="6.48" transform="translate(49.02 22.44) rotate(-26.85)"/><circle class="cls-4" cx="41.95" cy="383.87" r="6.48" transform="translate(-102.64 278.58) rotate(-67.94)"/><circle class="cls-4" cx="341.55" cy="341.92" r="6.48"/><circle class="cls-4" cx="156.57" cy="269.25" r="6.48" transform="translate(89.83 165.48) rotate(-40.36)"/><circle class="cls-4" cx="156.57" cy="185.35" r="6.48" transform="translate(147.42 241.32) rotate(-63.15)"/><circle class="cls-4" cx="114.62" cy="112.68" r="6.48" transform="translate(193.58 175.46) rotate(-67.5)"/><circle class="cls-4" cx="41.95" cy="70.73" r="6.48" transform="translate(199.51 26.58) rotate(-26.85)"/><circle class="cls-4" cx="226.93" cy="32.79" r="3.24"/><path class="cls-4" d="M-98.1,62a3.24,3.24,0,0,0,4-2.29,3.23,3.23,0,0,0-2.29-4,3.24,3.24,0,0,0-4,2.29A3.24,3.24,0,0,0-98.1,62Z" transform="translate(226.93)"/><path class="cls-4" d="M-167.61,133.18a3.24,3.24,0,0,0,2.29-4,3.25,3.25,0,0,0-4-2.3,3.24,3.24,0,0,0-2.29,4A3.25,3.25,0,0,0-167.61,133.18Z" transform="translate(226.93)"/><path class="cls-4" d="M-192.22,229.59a3.23,3.23,0,0,0,0-4.58,3.24,3.24,0,0,0-4.59,0,3.25,3.25,0,0,0,0,4.58A3.24,3.24,0,0,0-192.22,229.59Z" transform="translate(226.93)"/><path class="cls-4" d="M-165.32,325.4a3.24,3.24,0,0,0-2.29-4,3.23,3.23,0,0,0-4,2.29,3.23,3.23,0,0,0,2.29,4A3.24,3.24,0,0,0-165.32,325.4Z" transform="translate(226.93)"/><path class="cls-4" d="M-94.13,394.92a3.25,3.25,0,0,0-4-2.3,3.24,3.24,0,0,0-2.29,4,3.25,3.25,0,0,0,4,2.3A3.24,3.24,0,0,0-94.13,394.92Z" transform="translate(226.93)"/><circle class="cls-4" cx="226.93" cy="421.81" r="3.24"/><path class="cls-4" d="M98.1,392.62a3.25,3.25,0,1,0,2.29,4A3.25,3.25,0,0,0,98.1,392.62Z" transform="translate(226.93)"/><path class="cls-4" d="M167.61,321.43a3.24,3.24,0,1,0,4,2.29A3.24,3.24,0,0,0,167.61,321.43Z" transform="translate(226.93)"/><path class="cls-4" d="M192.22,225a3.24,3.24,0,1,0,4.59,0A3.23,3.23,0,0,0,192.22,225Z" transform="translate(226.93)"/><path class="cls-4" d="M165.32,129.21a3.24,3.24,0,1,0,4-2.3A3.24,3.24,0,0,0,165.32,129.21Z" transform="translate(226.93)"/><path class="cls-4" d="M94.13,59.69a3.24,3.24,0,1,0,2.29-4A3.24,3.24,0,0,0,94.13,59.69Z" transform="translate(226.93)"/><path class="cls-4" d="M-12.5,193.94a4.87,4.87,0,0,0,6.64-1.78,4.86,4.86,0,0,0-1.78-6.65,4.87,4.87,0,0,0-6.64,1.78A4.87,4.87,0,0,0-12.5,193.94Z" transform="translate(226.93)"/><path class="cls-4" d="M-27.51,204.66a4.86,4.86,0,0,0,4.86-4.87,4.86,4.86,0,0,0-4.86-4.86,4.87,4.87,0,0,0-4.86,4.86A4.87,4.87,0,0,0-27.51,204.66Z" transform="translate(226.93)"/><path class="cls-4" d="M-35.15,221.44a4.85,4.85,0,0,0,1.78-6.64A4.87,4.87,0,0,0-40,213a4.87,4.87,0,0,0-1.78,6.64A4.85,4.85,0,0,0-35.15,221.44Z" transform="translate(226.93)"/><path class="cls-4" d="M-33.37,239.8a4.85,4.85,0,0,0-1.78-6.64,4.86,4.86,0,0,0-6.64,1.78A4.87,4.87,0,0,0-40,241.58,4.86,4.86,0,0,0-33.37,239.8Z" transform="translate(226.93)"/><path class="cls-4" d="M-22.65,254.81A4.85,4.85,0,0,0-27.51,250a4.86,4.86,0,0,0-4.86,4.86,4.86,4.86,0,0,0,4.86,4.86A4.85,4.85,0,0,0-22.65,254.81Z" transform="translate(226.93)"/><path class="cls-4" d="M-5.86,262.45a4.86,4.86,0,0,0-6.64-1.78,4.86,4.86,0,0,0-1.78,6.64,4.86,4.86,0,0,0,6.64,1.78A4.85,4.85,0,0,0-5.86,262.45Z" transform="translate(226.93)"/><path class="cls-4" d="M12.5,260.67a4.86,4.86,0,1,0,1.78,6.64A4.86,4.86,0,0,0,12.5,260.67Z" transform="translate(226.93)"/><path class="cls-4" d="M27.51,250a4.86,4.86,0,1,0,4.86,4.86A4.85,4.85,0,0,0,27.51,250Z" transform="translate(226.93)"/><path class="cls-4" d="M35.15,233.16a4.86,4.86,0,1,0,6.64,1.78A4.85,4.85,0,0,0,35.15,233.16Z" transform="translate(226.93)"/><path class="cls-4" d="M33.37,214.8A4.86,4.86,0,1,0,40,213,4.85,4.85,0,0,0,33.37,214.8Z" transform="translate(226.93)"/><path class="cls-4" d="M22.65,199.79a4.86,4.86,0,1,0,4.86-4.86A4.86,4.86,0,0,0,22.65,199.79Z" transform="translate(226.93)"/><path class="cls-4" d="M5.86,192.16a4.86,4.86,0,1,0,1.78-6.65A4.87,4.87,0,0,0,5.86,192.16Z" transform="translate(226.93)"/><circle class="cls-1" cx="226.93" cy="227.3" r="226.93"/></g></g></g></svg>