<svg xmlns="http://www.w3.org/2000/svg" viewBox="0 0 72.59 16.13"><defs><style>.cls-1{fill:#b68e00;}.cls-2{fill:#8d8000;}.cls-3{fill:#0c5e60;}</style></defs><g id="Layer_2" data-name="Layer 2"><g id="design"><path class="cls-1" d="M15.39,15.66l.44-.49a.79.79,0,0,0,.58.32c.26,0,.42-.16.42-.53v-2h.72V15a1,1,0,0,1-1.12,1.14A1.32,1.32,0,0,1,15.39,15.66Z"/><path class="cls-1" d="M21.53,12.91h.64l1.35,3.18h-.73l-.29-.71H21.17l-.29.71h-.71Zm.73,1.85-.42-1-.42,1Z"/><path class="cls-1" d="M26.31,12.93h1.46a1.14,1.14,0,0,1,.83.28.73.73,0,0,1,.22.53h0a.72.72,0,0,1-.42.68.77.77,0,0,1,.59.78h0c0,.58-.47.87-1.18.87h-1.5Zm1.82.93c0-.21-.17-.32-.46-.32H27v.66h.65c.3,0,.5-.09.5-.33Zm-.34.92H27v.7h.83c.31,0,.49-.11.49-.35h0C28.3,14.91,28.14,14.78,27.79,14.78Z"/><path class="cls-1" d="M33,12.91h.64l1.35,3.18h-.72l-.29-.71H32.59l-.29.71h-.7Zm.73,1.85-.42-1-.42,1Z"/><path class="cls-1" d="M37.73,12.93H39.2a1.17,1.17,0,0,1,.83.28.72.72,0,0,1,.21.53h0a.73.73,0,0,1-.41.68.78.78,0,0,1,.59.78h0c0,.58-.47.87-1.18.87H37.73Zm1.82.93c0-.21-.16-.32-.45-.32h-.69v.66h.64c.31,0,.5-.09.5-.33Zm-.34.92h-.8v.7h.83c.3,0,.49-.11.49-.35h0C39.73,14.91,39.57,14.78,39.21,14.78Z"/><path class="cls-1" d="M43.29,12.93h2.38v.62H44v.64h1.49v.61H44v.67H45.7v.62H43.29Z"/><path class="cls-1" d="M48.62,12.93h.69v1.38l1.28-1.38h.84l-1.28,1.34,1.34,1.82h-.83l-1-1.35-.37.38v1h-.69Z"/><path class="cls-1" d="M55.2,12.91h.64l1.36,3.18h-.73l-.29-.71H54.85l-.29.71h-.71Zm.73,1.85-.41-1-.42,1Z"/><path class="cls-2" d="M53.23,4.48h.27v1h1.35v-1h.26V6.82h-.26V5.76H53.5V6.82h-.27Z"/><path class="cls-2" d="M57.53,5.65h0a1.18,1.18,0,0,1,1.19-1.21,1.16,1.16,0,0,1,1.19,1.2h0a1.19,1.19,0,1,1-2.38,0Zm2.11,0h0a.92.92,0,1,0-1.84,0h0a.92.92,0,1,0,1.84,0Z"/><path class="cls-2" d="M62.88,4.72h-.79V4.48h1.84v.24h-.78v2.1h-.27Z"/><path class="cls-2" d="M66.6,4.48h1.69v.24H66.86v.8h1.28v.24H66.86v.82h1.45v.24H66.6Z"/><path class="cls-2" d="M71,4.48h.26V6.57h1.32v.25H71Z"/><path class="cls-3" d="M48,4.58a2.6,2.6,0,0,0-2.3-1.37c-1.54,0-3.68,1.09-3.11,3.24-.1,0-.4.46-2.32.68a2,2,0,0,1-2.06-1,7.48,7.48,0,0,0,1.28-.82c.62-.59.39-1.32-.31-1.77a2.86,2.86,0,0,0-2.64,0c-.14,0-.6-.44-1.11-.27s-.7.81-1.07,1.82a7.93,7.93,0,0,1-4.78,2.11,2,2,0,0,1-1.84-.91,12.67,12.67,0,0,0,2.67-.88c1.24-.65.76-2.22-1-2.22a3.61,3.61,0,0,0-3.42,2.15,1.71,1.71,0,0,0,0,.78s-2.3.66-3.16.82c-1.88.36-3.26.13-1.61-2.6A15.16,15.16,0,0,0,23.57,4c.71-.25.24-.77,0-.77s-1.72.31-1.72.31c.32-.49.7-1,1.15-1.68A1.22,1.22,0,0,0,23,.73c-.12-.28-.56-.73-.8-.73-.52,0-.85,1.56-1.67,3.75L19,4c-.83.28-.29.57,0,.57s.52,0,1.22-.11a5.9,5.9,0,0,1-.43.88,6.54,6.54,0,0,1-1.74.89,3.41,3.41,0,0,1-2.14.23c-.89-.45.16-2.06-1.62-2-.92,0-2.3,1.79-3.92,1.79-1.16,0,.64-2.58-1.16-1.79L7.42,5.2c-.91-.72-1.81-2.31-3.25-1.93S.34,4.93,0,6.21A1.36,1.36,0,0,0,1,7.83a3.09,3.09,0,0,0,1.2.2h0C4.44,8,8.7,5.84,8.93,5.72v0c-.21.41-.59,1.82.52,1.82,2.58,0,5.09-3.5,5.09-1.95,0,1.16.3,1.82,1.11,2a5.27,5.27,0,0,0,2.42-.31c.77-.27,1.24-.59,1.24-.43a1.59,1.59,0,0,0,.21.76c.6,1.06,4.38,0,6.39-.65l.47-.16A4,4,0,0,0,29.58,8,9,9,0,0,0,34,6.35C33.79,7,33.44,8,33.44,8a2.19,2.19,0,0,0,1.65-.56c.44-.86.65-1.3,1.08-2.13s2.39-1.9,2.42-1.07-.84,1.28-2.13,1.64c.18,0,.67.18.83.51.83,1.7,3.31,1.69,3.84,1.59a8.34,8.34,0,0,0,2-.7A3.93,3.93,0,0,0,45.68,8C47.3,8,49.19,6.74,48,4.58ZM2.73,6.88a6.58,6.58,0,0,1-.87.06c-1.12,0,0-1.48.83-1.95a5.1,5.1,0,0,1,1.7-.65c.42-.12,1.78,1.24,2,1.41A17.07,17.07,0,0,1,2.73,6.88Zm25-1.57c.29-.8,1.59-1.77,2-1.29s-.13,1-2.1,1.65A1.55,1.55,0,0,1,27.76,5.31Zm16,.22A1.59,1.59,0,0,1,45.1,4.1a2.37,2.37,0,0,1-.88,1.47l-.4.28A1.19,1.19,0,0,1,43.77,5.53Zm2.08,1.69a2.32,2.32,0,0,1-1.56-.6,6.22,6.22,0,0,0,.78-.53A3.17,3.17,0,0,0,46,4c1,.06,1.71.65,1.71,1.49A1.8,1.8,0,0,1,45.85,7.22Z"/></g></g></svg>